<svg aria-hidden="true" style="position:absolute;width:0;height:0" xmlns="http://www.w3.org/2000/svg" overflow="hidden"><defs><symbol id="email" viewBox="0 0 28 32"><path d="M4 2C1.794 2 0 3.794 0 6v20c0 2.206 1.794 4 4 4h20c2.206 0 4-1.794 4-4V6c0-2.206-1.794-4-4-4H4zm9.625 14.981l-9.613-6.206C4.124 9.775 4.968 9 5.999 9h16c1.031 0 1.875.775 1.988 1.775l-9.613 6.206a.678.678 0 01-.75 0zm1.838 1.682L24 13.151v7.85c0 1.106-.894 2-2 2H6c-1.106 0-2-.894-2-2v-7.85l8.537 5.513a2.706 2.706 0 002.926 0z"/></symbol><symbol id="linkedin" viewBox="0 0 28 32"><path d="M26 2H1.994C.894 2 0 2.906 0 4.019v23.962C0 29.094.894 30 1.994 30H26c1.1 0 2-.906 2-2.019V4.019C28 2.907 27.1 2 26 2zM8.463 26h-4.15V12.637h4.156V26zM6.388 10.813a2.407 2.407 0 010-4.812 2.41 2.41 0 012.406 2.406 2.403 2.403 0 01-2.406 2.406zM24.019 26h-4.15v-6.5c0-1.55-.031-3.544-2.156-3.544-2.162 0-2.494 1.688-2.494 3.431V26h-4.15V12.637h3.981v1.825h.056c.556-1.05 1.912-2.156 3.931-2.156 4.2 0 4.981 2.769 4.981 6.369V26z"/></symbol><symbol id="menu" viewBox="0 0 53 32"><path d="M0 0h52.8v6.4H0V0zm0 12.8h52.8v6.4H0v-6.4zm0 12.8h52.8V32H0v-6.4z"/></symbol><symbol id="menu-close" viewBox="0 0 32 32"><path d="M3.935 0l26.928 26.928-3.935 3.935L0 3.935 3.935 0z"/><path d="M.197 27.209L27.125.281l3.935 3.935L4.132 31.144.197 27.209z"/></symbol></defs></svg>